<mxfile host="app.diagrams.net" modified="2023-06-12T06:00:31.681Z" agent="Mozilla/5.0 (Windows NT 10.0; Win64; x64) AppleWebKit/537.36 (KHTML, like Gecko) Chrome/114.0.0.0 Safari/537.36 Edg/114.0.1823.43" etag="Y3q7bN4l7rwi8MMQvfX1" version="21.3.8" type="github">
  <diagram name="第 1 页" id="dzRCrdXQojeofjctdxR_">
    <mxGraphModel dx="911" dy="474" grid="0" gridSize="10" guides="1" tooltips="1" connect="1" arrows="1" fold="1" page="1" pageScale="1" pageWidth="827" pageHeight="1169" math="0" shadow="0">
      <root>
        <mxCell id="0" />
        <mxCell id="1" parent="0" />
        <mxCell id="V753VbCTnY8DzY9iV8gV-2" value="流媒体应用（直播、点播）" style="rounded=1;whiteSpace=wrap;html=1;fontFamily=simsun;fillColor=#f5f5f5;strokeColor=#666666;fontColor=#333333;" parent="1" vertex="1">
          <mxGeometry x="160" y="90" width="380" height="40" as="geometry" />
        </mxCell>
        <mxCell id="V753VbCTnY8DzY9iV8gV-3" value="传输层（&lt;font face=&quot;Times New Roman&quot;&gt;TCP、UDP&lt;/font&gt;）" style="rounded=1;whiteSpace=wrap;html=1;fontFamily=simsun;fillColor=#dae8fc;strokeColor=#6c8ebf;" parent="1" vertex="1">
          <mxGeometry x="160" y="260" width="380" height="40" as="geometry" />
        </mxCell>
        <mxCell id="V753VbCTnY8DzY9iV8gV-4" value="" style="endArrow=none;html=1;rounded=0;dashed=1;strokeWidth=2;fontFamily=Times New Roman;" parent="1" edge="1">
          <mxGeometry width="50" height="50" relative="1" as="geometry">
            <mxPoint x="140" y="140" as="sourcePoint" />
            <mxPoint x="560" y="140" as="targetPoint" />
          </mxGeometry>
        </mxCell>
        <mxCell id="V753VbCTnY8DzY9iV8gV-5" value="RTP / RTCP&amp;nbsp;" style="rounded=1;whiteSpace=wrap;html=1;fontFamily=Times New Roman;fillColor=#dae8fc;strokeColor=#6c8ebf;" parent="1" vertex="1">
          <mxGeometry x="240" y="220" width="220" height="40" as="geometry" />
        </mxCell>
        <mxCell id="V753VbCTnY8DzY9iV8gV-6" value="SDP" style="rounded=1;whiteSpace=wrap;html=1;fontFamily=Times New Roman;fillColor=#fff2cc;strokeColor=#d6b656;" parent="1" vertex="1">
          <mxGeometry x="160" y="150" width="80" height="40" as="geometry" />
        </mxCell>
        <mxCell id="V753VbCTnY8DzY9iV8gV-12" value="" style="edgeStyle=orthogonalEdgeStyle;rounded=0;orthogonalLoop=1;jettySize=auto;html=1;fontFamily=Times New Roman;fillColor=#fff2cc;strokeColor=#000000;strokeWidth=2;" parent="1" source="V753VbCTnY8DzY9iV8gV-7" target="V753VbCTnY8DzY9iV8gV-8" edge="1">
          <mxGeometry relative="1" as="geometry" />
        </mxCell>
        <mxCell id="V753VbCTnY8DzY9iV8gV-17" value="" style="edgeStyle=orthogonalEdgeStyle;rounded=0;orthogonalLoop=1;jettySize=auto;html=1;exitX=0.5;exitY=1;exitDx=0;exitDy=0;entryX=0.25;entryY=0;entryDx=0;entryDy=0;strokeWidth=2;" parent="1" source="V753VbCTnY8DzY9iV8gV-7" target="V753VbCTnY8DzY9iV8gV-5" edge="1">
          <mxGeometry relative="1" as="geometry">
            <mxPoint x="300" y="169" as="sourcePoint" />
            <mxPoint x="300" y="199" as="targetPoint" />
          </mxGeometry>
        </mxCell>
        <mxCell id="V753VbCTnY8DzY9iV8gV-7" value="RTSP" style="rounded=1;whiteSpace=wrap;html=1;fontFamily=Times New Roman;fillColor=#fff2cc;strokeColor=#d6b656;" parent="1" vertex="1">
          <mxGeometry x="260" y="150" width="80" height="40" as="geometry" />
        </mxCell>
        <mxCell id="V753VbCTnY8DzY9iV8gV-8" value="HTTP" style="rounded=1;whiteSpace=wrap;html=1;fontFamily=Times New Roman;fillColor=#fff2cc;strokeColor=#d6b656;" parent="1" vertex="1">
          <mxGeometry x="360" y="150" width="80" height="40" as="geometry" />
        </mxCell>
        <mxCell id="V753VbCTnY8DzY9iV8gV-9" value="SIP" style="rounded=1;whiteSpace=wrap;html=1;fontFamily=Times New Roman;fillColor=#fff2cc;strokeColor=#d6b656;" parent="1" vertex="1">
          <mxGeometry x="460" y="150" width="80" height="40" as="geometry" />
        </mxCell>
        <mxCell id="V753VbCTnY8DzY9iV8gV-10" value="" style="endArrow=none;html=1;rounded=0;dashed=1;strokeWidth=2;fontFamily=simsun;" parent="1" edge="1">
          <mxGeometry width="50" height="50" relative="1" as="geometry">
            <mxPoint x="140" y="200" as="sourcePoint" />
            <mxPoint x="560" y="200" as="targetPoint" />
          </mxGeometry>
        </mxCell>
        <mxCell id="V753VbCTnY8DzY9iV8gV-11" value="" style="endArrow=classic;html=1;rounded=0;exitX=0;exitY=0.5;exitDx=0;exitDy=0;entryX=1;entryY=0.5;entryDx=0;entryDy=0;fontFamily=Times New Roman;fillColor=#fff2cc;strokeColor=#000000;strokeWidth=2;" parent="1" source="V753VbCTnY8DzY9iV8gV-7" target="V753VbCTnY8DzY9iV8gV-6" edge="1">
          <mxGeometry width="50" height="50" relative="1" as="geometry">
            <mxPoint x="390" y="260" as="sourcePoint" />
            <mxPoint x="440" y="210" as="targetPoint" />
          </mxGeometry>
        </mxCell>
        <mxCell id="V753VbCTnY8DzY9iV8gV-14" value="" style="endArrow=none;html=1;rounded=0;dashed=1;strokeWidth=2;fontFamily=simsun;" parent="1" edge="1">
          <mxGeometry width="50" height="50" relative="1" as="geometry">
            <mxPoint x="140" y="310" as="sourcePoint" />
            <mxPoint x="560" y="310" as="targetPoint" />
          </mxGeometry>
        </mxCell>
        <mxCell id="V753VbCTnY8DzY9iV8gV-15" value="网络层（&lt;font face=&quot;Times New Roman&quot;&gt;IPv4、IPv6&lt;/font&gt;）" style="rounded=1;whiteSpace=wrap;html=1;fontFamily=simsun;fillColor=#d5e8d4;strokeColor=#82b366;" parent="1" vertex="1">
          <mxGeometry x="160" y="358" width="380" height="40" as="geometry" />
        </mxCell>
        <mxCell id="V753VbCTnY8DzY9iV8gV-16" value="RSVP" style="rounded=1;whiteSpace=wrap;html=1;fontFamily=Times New Roman;fillColor=#d5e8d4;strokeColor=#82b366;" parent="1" vertex="1">
          <mxGeometry x="240" y="318" width="220" height="40" as="geometry" />
        </mxCell>
      </root>
    </mxGraphModel>
  </diagram>
</mxfile>
